<?xml version="1.0" standalone="no"?>
<!DOCTYPE svg PUBLIC "-//W3C//DTD SVG 20010904//EN"
 "http://www.w3.org/TR/2001/REC-SVG-20010904/DTD/svg10.dtd">
<svg version="1.0" xmlns="http://www.w3.org/2000/svg"
 width="512.000000pt" height="512.000000pt" viewBox="0 0 512.000000 512.000000"
 preserveAspectRatio="xMidYMid meet">
<metadata>
Created by potrace 1.16, written by Peter Selinger 2001-2019
</metadata>
<g transform="translate(0.000000,512.000000) scale(0.100000,-0.100000)"
fill="#000000" stroke="none">
<path d="M2303 4963 c6 -53 22 -345 46 -846 5 -104 11 -191 14 -193 2 -3 22
-2 43 2 l39 6 -3 121 c-1 67 -14 309 -27 538 -14 228 -25 418 -25 422 0 4 -21
7 -46 7 l-47 0 6 -57z"/>
<path d="M2690 4995 c-5 -14 -10 -38 -10 -52 0 -14 -24 -170 -54 -347 -78
-461 -110 -666 -105 -670 2 -3 22 -6 43 -8 l40 -3 38 235 c22 129 61 368 89
530 27 162 49 303 49 313 0 11 -8 17 -24 17 -13 0 -31 3 -40 6 -11 4 -19 -2
-26 -21z"/>
<path d="M1960 4968 c-19 -6 -36 -11 -38 -13 -2 -2 13 -57 32 -123 20 -65 36
-125 36 -133 0 -8 24 -99 54 -204 51 -177 117 -412 155 -548 l16 -58 35 6 c61
11 70 -39 -96 540 -30 105 -54 196 -54 202 0 20 -90 327 -98 334 -4 3 -23 2
-42 -3z"/>
<path d="M3051 4871 c-11 -27 -21 -54 -21 -59 0 -4 -18 -51 -41 -103 -22 -52
-56 -134 -74 -184 -36 -96 -83 -214 -175 -440 -76 -184 -78 -193 -45 -205 52
-20 61 -14 83 53 11 34 39 104 61 156 23 51 50 118 61 149 10 32 36 95 56 142
20 47 47 114 59 150 13 36 49 126 79 200 31 74 56 142 56 151 0 9 -11 20 -24
23 -13 3 -31 8 -39 11 -10 4 -21 -9 -36 -44z"/>
<path d="M1618 4834 c-16 -8 -28 -19 -28 -23 0 -5 59 -125 131 -267 72 -143
183 -360 245 -483 63 -123 115 -226 118 -228 6 -6 76 30 76 39 0 7 -245 494
-436 866 -31 61 -62 112 -68 112 -6 -1 -23 -8 -38 -16z"/>
<path d="M3383 4743 c-3 -9 -59 -95 -123 -192 -64 -97 -119 -181 -121 -186 -4
-11 -178 -275 -280 -427 -33 -47 -59 -91 -59 -96 0 -11 69 -57 74 -51 2 2 16
24 31 49 16 25 89 137 163 250 74 113 173 264 220 335 47 72 107 163 133 203
27 40 49 79 49 87 0 17 -38 45 -63 45 -9 0 -20 -7 -24 -17z"/>
<path d="M1328 4649 c-16 -11 -28 -25 -28 -31 0 -6 22 -38 49 -72 27 -33 81
-101 119 -151 75 -96 140 -179 225 -286 28 -37 101 -130 160 -207 60 -77 115
-143 122 -146 16 -6 65 30 65 47 0 7 -31 50 -68 96 -37 46 -85 108 -107 137
-22 29 -101 130 -175 224 -74 94 -153 195 -175 224 -70 94 -147 186 -153 186
-4 0 -19 -10 -34 -21z"/>
<path d="M3621 4534 c-24 -31 -17 -51 27 -83 16 -11 61 -57 100 -103 165 -192
285 -410 351 -633 63 -217 75 -295 75 -495 0 -190 -13 -286 -60 -445 -15 -49
-33 -111 -40 -137 -7 -26 -40 -101 -73 -166 -57 -114 -89 -168 -163 -274 -45
-64 -213 -244 -263 -282 -23 -17 -65 -49 -93 -71 -265 -209 -646 -334 -1014
-335 -165 0 -316 21 -503 71 -118 32 -356 150 -484 241 l-24 17 49 65 c49 65
49 65 74 48 50 -33 244 -142 253 -142 5 0 48 -15 96 -34 195 -78 431 -108 680
-87 165 15 265 37 396 87 169 66 282 128 395 217 202 159 341 327 446 538 219
441 217 945 -6 1389 -27 52 -63 115 -81 140 -19 25 -40 57 -49 72 -22 40 -209
238 -225 238 -16 0 -225 -225 -225 -243 0 -7 21 -33 46 -57 112 -109 251 -327
293 -460 46 -148 56 -215 56 -390 -1 -231 -26 -347 -116 -527 -167 -331 -444
-551 -819 -649 -50 -12 -109 -17 -250 -17 -160 0 -197 3 -275 23 -115 29 -294
105 -368 158 l-58 40 41 47 c22 25 44 54 50 65 9 17 16 15 90 -30 155 -93 384
-148 570 -137 256 16 481 114 660 289 106 103 145 157 206 283 85 177 98 236
98 455 0 161 -3 195 -23 265 -29 105 -118 285 -178 360 -61 75 -130 145 -144
145 -19 0 -229 -225 -229 -245 0 -6 27 -37 60 -70 33 -33 60 -63 60 -66 0 -4
15 -34 34 -66 63 -106 79 -171 79 -323 1 -155 -9 -196 -79 -327 -65 -121 -203
-253 -304 -291 -144 -55 -186 -64 -290 -65 -82 -1 -120 3 -176 20 -99 31 -172
66 -218 102 -48 39 -66 39 -88 1 -16 -28 -16 -31 0 -47 24 -24 125 -88 159
-100 133 -50 177 -58 323 -57 127 1 155 4 226 26 146 47 218 92 332 208 59 61
83 95 127 185 29 61 61 142 69 182 22 101 21 242 -4 339 -26 103 -98 248 -154
311 l-44 49 55 57 c30 31 58 57 61 56 14 -1 108 -125 140 -183 63 -116 91
-191 106 -289 51 -311 -19 -567 -217 -798 -113 -131 -261 -225 -442 -282 -250
-79 -558 -30 -780 124 -39 27 -76 49 -82 49 -6 0 -57 -60 -113 -132 l-102
-133 29 -25 c42 -38 212 -137 273 -161 371 -142 651 -146 993 -15 80 31 166
73 187 91 8 8 28 20 44 29 47 24 176 135 245 211 88 98 135 165 191 275 68
136 96 222 121 367 34 208 15 472 -48 647 -57 158 -171 346 -274 451 l-39 41
57 58 57 59 56 -60 c249 -267 395 -670 376 -1038 -8 -163 -55 -375 -110 -498
-172 -388 -463 -660 -868 -811 -92 -34 -122 -41 -312 -67 -91 -13 -304 -7
-416 11 -209 34 -434 133 -618 271 l-43 32 -35 -41 c-73 -85 -175 -223 -172
-232 4 -12 147 -120 160 -120 5 0 24 -11 41 -24 72 -53 240 -129 389 -176 199
-62 462 -91 661 -73 221 20 383 56 532 118 44 18 95 38 113 45 18 7 58 28 90
47 31 19 77 46 102 60 25 14 91 61 147 105 391 306 632 752 684 1268 23 229
-15 506 -103 765 -25 73 -123 274 -164 334 -16 24 -38 59 -49 77 -11 18 -29
43 -40 56 -11 13 -37 43 -57 68 -65 80 -176 190 -192 190 -8 0 -24 -12 -35
-26z"/>
<path d="M1079 4414 l-24 -26 70 -64 c39 -35 86 -77 105 -91 19 -15 58 -48 85
-74 28 -26 78 -71 111 -100 102 -90 117 -102 343 -302 l123 -109 29 28 c35 33
35 39 8 62 -12 9 -74 64 -139 122 -64 58 -145 130 -181 161 -126 111 -434 383
-453 401 -27 25 -48 23 -77 -8z"/>
<path d="M900 4148 c-19 -30 -19 -34 -4 -43 9 -5 33 -21 53 -34 54 -36 260
-161 306 -186 22 -12 73 -43 114 -69 40 -26 83 -51 95 -56 11 -4 39 -20 61
-36 74 -51 285 -174 298 -174 7 0 21 14 31 32 19 31 19 32 -2 47 -11 9 -55 36
-97 61 -42 25 -122 74 -178 109 -56 35 -109 66 -117 70 -16 6 -81 45 -277 167
-57 35 -105 64 -107 64 -3 0 -34 18 -68 40 -35 22 -69 40 -76 40 -7 0 -21 -15
-32 -32z"/>
<path d="M751 3857 c-6 -8 -14 -28 -17 -45 -6 -29 -4 -31 37 -43 43 -12 201
-68 516 -183 83 -31 156 -56 161 -56 5 0 79 -27 163 -59 169 -65 179 -65 182
-1 2 32 1 33 -68 55 -38 12 -124 43 -190 69 -66 25 -125 46 -130 46 -6 0 -75
25 -153 55 -79 30 -148 55 -154 55 -6 0 -75 24 -152 54 -182 69 -181 69 -195
53z"/>
<path d="M666 3504 c-3 -9 -6 -28 -6 -44 0 -32 9 -35 110 -45 36 -3 232 -30
435 -60 204 -30 408 -59 454 -64 94 -12 101 -9 101 45 l0 31 -162 21 c-90 12
-329 47 -533 77 -203 31 -375 55 -381 55 -7 0 -15 -7 -18 -16z"/>
<path d="M1560 3194 c-96 -8 -323 -26 -505 -40 -437 -33 -405 -28 -405 -75 0
-36 2 -39 28 -39 61 -1 1073 78 1079 84 6 6 -9 86 -16 85 -3 -1 -85 -8 -181
-15z"/>
<path d="M1595 3002 c-93 -30 -255 -81 -360 -114 -104 -32 -262 -82 -350 -111
l-160 -52 3 -30 c6 -58 15 -58 162 -10 74 24 214 68 310 98 96 30 261 82 365
116 105 34 198 61 207 61 9 0 20 5 23 10 7 11 -12 77 -23 83 -4 3 -83 -21
-177 -51z"/>
<path d="M1740 2871 c-102 -60 -196 -114 -248 -141 -26 -14 -81 -45 -122 -70
-41 -24 -93 -54 -115 -65 -44 -24 -136 -76 -292 -168 l-102 -59 17 -34 c8 -19
22 -34 30 -34 13 0 159 79 247 133 22 14 72 42 110 62 39 21 94 53 124 72 30
19 64 38 77 43 12 5 63 34 112 64 50 31 93 56 96 56 9 0 196 112 196 117 0 17
-37 63 -50 63 -8 -1 -44 -18 -80 -39z"/>
<path d="M1780 2684 c-97 -90 -678 -612 -689 -620 -7 -6 41 -64 53 -64 18 0
36 16 317 271 74 68 196 178 270 244 74 66 156 141 184 167 l50 47 -21 28
c-12 15 -27 29 -35 30 -8 1 -66 -45 -129 -103z"/>
<path d="M3410 1155 l0 -45 290 0 290 0 0 45 0 45 -290 0 -290 0 0 -45z"/>
<path d="M2937 1184 c-4 -4 -7 -58 -7 -120 l0 -113 -52 -3 -53 -3 0 -40 0 -40
53 -3 52 -3 0 -238 c0 -312 13 -378 90 -459 49 -51 86 -66 170 -66 l75 -1 0
45 c0 42 -2 45 -25 43 -45 -2 -114 18 -138 40 -13 12 -34 40 -45 62 -21 38
-22 56 -25 308 l-3 267 110 0 111 0 0 45 0 45 -110 0 -109 0 -3 118 -3 117
-40 3 c-23 2 -44 0 -48 -4z"/>
<path d="M750 970 c-92 -17 -220 -78 -220 -103 1 -7 12 -25 25 -42 25 -30 25
-30 52 -12 85 55 177 76 268 63 35 -6 58 -17 91 -48 45 -41 58 -71 69 -149 l7
-46 -134 -6 c-73 -3 -157 -13 -187 -21 -82 -23 -179 -76 -209 -116 -26 -33
-27 -40 -27 -155 0 -110 2 -123 23 -153 13 -18 47 -46 75 -62 50 -28 58 -30
170 -30 136 0 153 6 234 83 l53 50 0 -67 0 -67 43 3 42 3 0 335 c0 320 -1 337
-21 381 -32 69 -78 115 -138 138 -64 24 -155 33 -216 21z m286 -491 c-14 -119
-79 -235 -157 -279 -58 -33 -164 -35 -224 -5 -79 40 -111 154 -62 226 52 78
167 117 346 118 l104 1 -7 -61z"/>
<path d="M1610 974 c-70 -12 -121 -28 -177 -56 -70 -34 -77 -51 -40 -93 l22
-26 72 37 c61 31 85 38 150 41 68 4 84 2 123 -19 64 -35 100 -90 107 -165 l5
-60 -128 -6 c-141 -7 -216 -23 -301 -64 -99 -49 -143 -123 -143 -239 0 -73 24
-128 75 -173 60 -52 91 -61 216 -61 130 0 160 10 231 81 l47 47 3 -61 3 -62
45 0 45 0 0 330 c0 326 0 331 -24 383 -28 63 -103 134 -157 149 -47 14 -140
23 -174 17z m258 -502 c-6 -75 -30 -138 -80 -206 -76 -105 -239 -127 -332 -46
-44 40 -60 79 -54 140 6 62 30 90 114 131 73 36 127 46 258 48 l99 1 -5 -68z"/>
<path d="M2384 970 c-145 -29 -222 -119 -212 -250 8 -113 68 -166 287 -253 87
-35 109 -48 132 -81 51 -70 28 -160 -49 -193 -93 -40 -292 4 -335 74 -13 20
-24 16 -53 -22 l-27 -36 29 -30 c15 -16 55 -43 88 -59 56 -29 65 -30 188 -30
107 0 135 3 166 19 93 48 142 151 120 254 -8 37 -21 60 -61 101 -43 43 -69 59
-147 89 -179 70 -240 119 -240 192 0 42 37 96 80 117 67 34 180 19 258 -33 24
-16 46 -29 50 -29 8 0 42 57 42 71 0 33 -75 75 -168 95 -74 15 -88 16 -148 4z"/>
<path d="M3630 970 c-92 -17 -220 -77 -220 -102 0 -7 11 -26 24 -43 24 -30 25
-30 53 -12 85 54 193 79 277 63 74 -14 136 -95 151 -198 l6 -48 -88 0 c-163
-1 -276 -26 -378 -87 -69 -41 -104 -110 -105 -209 0 -100 34 -167 110 -211 53
-32 57 -33 173 -33 137 0 156 6 235 83 l52 51 0 -67 0 -68 43 3 42 3 0 335 c0
320 -1 337 -21 381 -32 69 -78 115 -138 138 -64 24 -154 33 -216 21z m290
-448 c0 -80 -54 -226 -104 -280 -40 -45 -95 -66 -171 -67 -89 0 -140 24 -172
80 -42 74 -26 159 39 209 70 53 154 73 306 75 92 1 102 -1 102 -17z"/>
<path d="M4508 945 c-50 -18 -100 -58 -130 -100 l-23 -35 -5 68 -5 67 -48 3
-47 3 2 -428 3 -428 42 -3 c37 -3 43 0 48 20 2 13 6 129 7 258 3 235 3 235 33
309 45 111 127 181 212 181 l43 0 0 50 0 50 -47 -1 c-27 0 -65 -7 -85 -14z"/>
</g>
</svg>
